<svg width="30" height="30" viewBox="0 0 30 30" fill="none" xmlns="http://www.w3.org/2000/svg">
<path d="M11.8804 29.0331L1.72974 14.6755L1.84065 11.5116L13.3944 26.6116L11.8804 29.0331Z" fill="#1E4A98"/>
<path d="M11.8982 29.033L27.1868 18.4407L28.2969 16.3296L13.3842 26.6575L11.8982 29.033Z" fill="#202020"/>
<path d="M22.6398 15.2387L20.7778 12.7751L11.8625 18.9687L12.5429 19.8837L20.4918 14.1829L21.673 15.9425L22.6398 15.2387Z" fill="#202020"/>
<path d="M19.6682 4.25928L7.49438 12.8455L8.10137 13.6915L18.5223 6.61722L19.6682 4.25928Z" fill="#202020"/>
<path d="M5.08655 15.7709L6.5634 17.7108L5.70401 20.2872L4.32104 18.3443L5.08655 15.7709Z" fill="#202020"/>
<path d="M5.08643 15.7442L8.10739 13.6858L4.92529 9.38367L1.84058 11.5081L5.08643 15.7442Z" fill="url(#paint0_linear_76_500)"/>
<path d="M6.56323 17.7108L9.43659 15.6387L16.0693 24.8365L13.4021 26.6052L6.56323 17.7108Z" fill="url(#paint1_linear_76_500)"/>
<path d="M16.0694 24.7978L28.2969 16.3296L21.9235 7.00427L9.44141 15.6154L11.8624 18.9687L20.7776 12.7751L22.6397 15.2386L13.7602 21.6429L16.0694 24.7978Z" fill="black"/>
<path d="M4.92529 9.38369L17.3406 0.986694L19.6681 4.25923L7.49429 12.8455L4.92529 9.38369Z" fill="black"/>
<path d="M5.08203 15.748L8.10736 13.6858L9.43662 15.6386L6.57635 17.7012L5.08203 15.748Z" fill="black"/>
<defs>
<linearGradient id="paint0_linear_76_500" x1="1.84058" y1="12.5639" x2="8.10739" y2="12.5639" gradientUnits="userSpaceOnUse">
<stop stop-color="#1E4A98"/>
<stop offset="0.46" stop-color="#29ABE2"/>
<stop offset="1" stop-color="#1E4A98"/>
</linearGradient>
<linearGradient id="paint1_linear_76_500" x1="6.56323" y1="21.1219" x2="16.0693" y2="21.1219" gradientUnits="userSpaceOnUse">
<stop stop-color="#1E4A98"/>
<stop offset="0.46" stop-color="#29ABE2"/>
<stop offset="1" stop-color="#1E4A98"/>
</linearGradient>
</defs>
</svg>
