<?xml version="1.0" encoding="UTF-8"?>
<svg id="Capa_1" data-name="Capa 1" xmlns="http://www.w3.org/2000/svg" xmlns:xlink="http://www.w3.org/1999/xlink" viewBox="0 0 1350 800">
  <defs>
    <style>
      .cls-1 {
        fill: url(#linear-gradient-2);
      }

      .cls-2 {
        fill: #fff;
      }

      .cls-3 {
        fill: #737577;
      }

      .cls-4 {
        fill: #f5f5f5;
      }

      .cls-5 {
        fill: #727477;
      }

      .cls-6 {
        fill: #1e4b97;
      }

      .cls-7 {
        fill: #17a2dc;
      }

      .cls-8 {
        fill: url(#linear-gradient);
      }
    </style>
    <linearGradient id="linear-gradient" x1="30.34" y1="367.09" x2="113.77" y2="367.09" gradientUnits="userSpaceOnUse">
      <stop offset="0" stop-color="#1e4b97"/>
      <stop offset=".46" stop-color="#2baae2"/>
      <stop offset="1" stop-color="#1e4b97"/>
    </linearGradient>
    <linearGradient id="linear-gradient-2" x1="93.25" y1="483.14" x2="219.8" y2="483.14" xlink:href="#linear-gradient"/>
  </defs>
  <g>
    <path class="cls-2" d="M423.75,302.3h18.02v120.56h-18.02v-120.56Z"/>
    <path class="cls-2" d="M569.77,302.3h17.13v120.56h-15.5l-84.19-92.86v92.86h-16.95v-120.56h14.6l84.91,93.64v-93.64Z"/>
    <path class="cls-2" d="M603.13,302.12h105.2v15.36h-43.9v105.38h-18.12v-105.38h-43.18v-15.36Z"/>
    <path class="cls-2" d="M725.36,302.3h71.39v15.36h-53.36v36.77h51.56v15.45h-51.56v37.45h55.07v15.36h-73.1v-120.39Z"/>
    <path class="cls-2" d="M885.72,363.49h42.29v51.09c-15.51,6.44-30.9,9.67-46.16,9.67-20.85,0-37.52-5.84-49.98-17.48-12.47-11.65-18.7-26.02-18.7-43.11,0-18.01,6.45-32.99,19.38-44.96,12.92-11.97,29.11-17.95,48.58-17.95,7.09,0,13.81,.73,20.19,2.2,6.37,1.47,14.42,4.16,24.15,8.07v17.61c-15.02-8.34-29.92-12.51-44.7-12.51-13.76,0-25.37,4.49-34.79,13.46-9.44,8.98-14.16,19.99-14.16,33.06s4.72,24.88,14.16,33.58c9.43,8.69,21.57,13.03,36.41,13.03,7.22,0,15.83-1.58,25.87-4.75l1.72-.51v-25.12h-24.26v-15.36Z"/>
    <path class="cls-2" d="M954.85,422.87v-120.56h31.54c12.75,0,22.86,3.02,30.34,9.06s11.22,14.21,11.22,24.51c0,7.02-1.83,13.09-5.5,18.21-3.67,5.12-8.93,8.95-15.77,11.48,4.03,2.53,7.96,5.98,11.81,10.36,3.85,4.37,9.25,11.99,16.23,22.87,4.39,6.84,7.9,11.99,10.55,15.45l6.67,8.63h-21.46l-5.48-7.95c-.18-.29-.54-.78-1.09-1.47l-3.5-4.75-5.59-8.8-6.02-9.42c-3.73-4.95-7.13-8.89-10.23-11.82-3.11-2.93-5.9-5.04-8.4-6.34-2.5-1.29-6.69-1.94-12.58-1.94h-4.7v52.47h-18.03Zm23.43-105.89h-5.4v38.06h6.85c9.14,0,15.4-.75,18.8-2.24,3.39-1.5,6.05-3.75,7.93-6.77s2.84-6.46,2.84-10.32-1.05-7.23-3.15-10.32c-2.11-3.08-5.07-5.25-8.89-6.51-3.81-1.27-10.13-1.9-18.97-1.9Z"/>
    <path class="cls-2" d="M1066,302.3h18.03v120.56h-18.03v-120.56Z"/>
    <path class="cls-2" d="M1101.25,302.12h105.2v15.36h-43.9v105.38h-18.11v-105.38h-43.18v-15.36Z"/>
    <path class="cls-2" d="M1299.2,302.3h21.89l-46.52,56.78v63.78h-18.47v-63.78l-46.52-56.78h21.76l33.71,41.56,34.15-41.56Z"/>
  </g>
  <g>
    <path class="cls-7" d="M444.01,490.76l-7.4-4.62c-4.64-2.92-7.95-5.79-9.91-8.62-1.97-2.82-2.95-6.07-2.95-9.74,0-5.52,1.86-9.99,5.58-13.42,3.72-3.45,8.55-5.16,14.49-5.16s10.9,1.64,15.64,4.92v11.37c-4.91-4.85-10.19-7.27-15.84-7.27-3.18,0-5.8,.75-7.84,2.27-2.05,1.51-3.07,3.45-3.07,5.81,0,2.1,.76,4.07,2.26,5.89,1.51,1.84,3.93,3.75,7.27,5.77l7.44,4.53c8.31,5.1,12.46,11.59,12.46,19.47,0,5.62-1.83,10.16-5.48,13.67-3.65,3.52-8.41,5.27-14.25,5.27-6.72,0-12.84-2.14-18.37-6.38v-12.73c5.26,6.86,11.35,10.29,18.27,10.29,3.05,0,5.6-.88,7.63-2.63,2.03-1.74,3.04-3.93,3.04-6.56,0-4.26-2.99-8.3-8.97-12.12Z"/>
    <path class="cls-7" d="M506.26,449.1c10.52,0,19.28,3.41,26.27,10.26,7,6.85,10.5,15.44,10.5,25.75s-3.53,18.86-10.59,25.63c-7.06,6.77-15.97,10.15-26.71,10.15s-18.8-3.38-25.64-10.15c-6.83-6.77-10.25-15.25-10.25-25.43s3.44-19.11,10.32-25.96c6.89-6.85,15.58-10.26,26.1-10.26Zm.39,9.51c-7.79,0-14.19,2.51-19.2,7.52-5.01,5.01-7.52,11.41-7.52,19.19s2.51,13.82,7.54,18.84c5.03,5.01,11.33,7.52,18.89,7.52s13.93-2.56,19.01-7.67c5.08-5.11,7.62-11.48,7.62-19.08s-2.54-13.66-7.62-18.71c-5.08-5.07-11.32-7.6-18.72-7.6Z"/>
    <path class="cls-7" d="M555.01,450.1h9.75v60.86h30.65v9.12h-40.39v-69.99Z"/>
    <path class="cls-7" d="M651.29,450.1h9.79v39.73c0,5.38-.38,9.44-1.15,12.18s-1.7,5.01-2.83,6.84c-1.12,1.82-2.49,3.45-4.12,4.89-5.39,4.77-12.44,7.16-21.14,7.16s-15.98-2.38-21.34-7.12c-1.62-1.47-2.99-3.11-4.12-4.93-1.12-1.82-2.05-4.05-2.78-6.69-.73-2.64-1.1-6.78-1.1-12.42v-39.63h9.79v39.73c0,6.58,.73,11.15,2.2,13.73,1.46,2.58,3.68,4.63,6.68,6.19,2.99,1.55,6.51,2.33,10.57,2.33,5.79,0,10.49-1.56,14.13-4.66,1.92-1.67,3.3-3.64,4.14-5.92,.85-2.27,1.27-6.16,1.27-11.67v-39.73Z"/>
    <path class="cls-7" d="M668.79,449.99h56.86v8.92h-23.74v61.18h-9.79v-61.18h-23.33v-8.92Z"/>
    <path class="cls-7" d="M734.95,450.1h9.75v69.99h-9.75v-69.99Z"/>
    <path class="cls-7" d="M793.21,449.1c10.51,0,19.27,3.41,26.27,10.26,6.99,6.85,10.49,15.44,10.49,25.75s-3.53,18.86-10.59,25.63c-7.06,6.77-15.97,10.15-26.71,10.15s-18.8-3.38-25.63-10.15c-6.83-6.77-10.25-15.25-10.25-25.43s3.44-19.11,10.32-25.96c6.88-6.85,15.58-10.26,26.1-10.26Zm.39,9.51c-7.79,0-14.2,2.51-19.21,7.52-5.01,5.01-7.52,11.41-7.52,19.19s2.51,13.82,7.55,18.84c5.03,5.01,11.33,7.52,18.88,7.52s13.93-2.56,19.01-7.67c5.07-5.11,7.62-11.48,7.62-19.08s-2.55-13.66-7.62-18.71c-5.08-5.07-11.31-7.6-18.71-7.6Z"/>
    <path class="cls-7" d="M896.04,450.1h9.26v69.99h-8.39l-45.5-53.91v53.91h-9.16v-69.99h7.89l45.9,54.36v-54.36Z"/>
    <path class="cls-7" d="M936.73,490.76l-7.41-4.62c-4.64-2.92-7.95-5.79-9.91-8.62-1.97-2.82-2.95-6.07-2.95-9.74,0-5.52,1.86-9.99,5.57-13.42,3.73-3.45,8.56-5.16,14.5-5.16s10.9,1.64,15.64,4.92v11.37c-4.91-4.85-10.18-7.27-15.83-7.27-3.18,0-5.8,.75-7.84,2.27-2.05,1.51-3.07,3.45-3.07,5.81,0,2.1,.75,4.07,2.26,5.89,1.5,1.84,3.93,3.75,7.28,5.77l7.44,4.53c8.3,5.1,12.45,11.59,12.45,19.47,0,5.62-1.82,10.16-5.48,13.67-3.65,3.52-8.4,5.27-14.25,5.27-6.72,0-12.85-2.14-18.37-6.38v-12.73c5.26,6.86,11.36,10.29,18.27,10.29,3.06,0,5.6-.88,7.63-2.63,2.02-1.74,3.05-3.93,3.05-6.56,0-4.26-2.99-8.3-8.97-12.12Z"/>
  </g>
  <g>
    <polygon class="cls-6" points="164.03 589.94 28.91 395.47 30.38 352.62 184.19 557.14 164.03 589.94"/>
    <polygon class="cls-3" points="164.27 589.94 367.79 446.47 382.57 417.87 184.05 557.76 164.27 589.94"/>
    <polygon class="cls-5" points="307.26 403.1 282.48 369.73 163.8 453.62 172.85 466.01 278.67 388.8 294.4 412.63 307.26 403.1"/>
    <polygon class="cls-3" points="267.7 254.39 105.65 370.69 113.73 382.14 252.45 286.32 267.7 254.39"/>
    <polygon class="cls-4" points="73.59 410.31 93.25 436.58 81.82 471.48 63.4 445.16 73.59 410.31"/>
    <polygon class="cls-8" points="73.55 410.34 113.77 382.1 71.4 323.83 30.34 352.61 73.55 410.34"/>
    <polygon class="cls-1" points="93.25 436.58 131.5 408.52 219.8 533.1 184.05 557.76 93.25 436.58"/>
    <polygon class="cls-4" points="71.45 323.8 236.59 210.06 267.7 254.39 105.65 370.69 71.45 323.8"/>
    <polygon class="cls-2" points="131.5 408.52 297.58 291.28 382.57 417.87 219.8 533.1 186.67 486.36 307.26 403.1 282.48 369.73 163.8 453.62 131.5 408.52"/>
    <polygon class="cls-2" points="73.55 410.34 113.77 382.1 131.5 408.52 93.25 436.58 73.55 410.34"/>
  </g>
</svg>