<svg width="1293" height="380" viewBox="0 0 1293 380" fill="none" xmlns="http://www.w3.org/2000/svg">
<path d="M394.84 92.24H412.86V212.8H394.84V92.24Z" fill="white"/>
<path d="M540.86 92.24H557.99V212.8H542.49L458.3 119.94V212.8H441.35V92.24H455.95L540.86 185.88V92.24Z" fill="white"/>
<path d="M574.22 92.06H679.42V107.42H635.52V212.8H617.4V107.42H574.22V92.06Z" fill="white"/>
<path d="M696.45 92.24H767.84V107.6H714.48V144.37H766.04V159.82H714.48V197.27H769.55V212.63H696.45V92.24Z" fill="white"/>
<path d="M856.81 153.43H899.1V204.52C883.59 210.96 868.2 214.19 852.94 214.19C832.09 214.19 815.42 208.35 802.96 196.71C790.49 185.06 784.26 170.69 784.26 153.6C784.26 135.59 790.71 120.61 803.64 108.64C816.56 96.67 832.75 90.69 852.22 90.69C859.31 90.69 866.03 91.42 872.41 92.89C878.78 94.36 886.83 97.05 896.56 100.96V118.57C881.54 110.23 866.64 106.06 851.86 106.06C838.1 106.06 826.49 110.55 817.07 119.52C807.63 128.5 802.91 139.51 802.91 152.58C802.91 165.65 807.63 177.46 817.07 186.16C826.5 194.85 838.64 199.19 853.48 199.19C860.7 199.19 869.31 197.61 879.35 194.44L881.07 193.93V168.81H856.81V153.45V153.43Z" fill="white"/>
<path d="M925.94 212.81V92.25H957.48C970.23 92.25 980.34 95.27 987.82 101.31C995.3 107.35 999.04 115.52 999.04 125.82C999.04 132.84 997.21 138.91 993.54 144.03C989.87 149.15 984.61 152.98 977.77 155.51C981.8 158.04 985.73 161.49 989.58 165.87C993.43 170.24 998.83 177.86 1005.81 188.74C1010.2 195.58 1013.71 200.73 1016.36 204.19L1023.03 212.82H1001.57L996.09 204.87C995.91 204.58 995.55 204.09 995 203.4L991.5 198.65L985.91 189.85L979.89 180.43C976.16 175.48 972.76 171.54 969.66 168.61C966.55 165.68 963.76 163.57 961.26 162.27C958.76 160.98 954.57 160.33 948.68 160.33H943.98V212.8H925.95L925.94 212.81ZM949.37 106.92H943.97V144.98H950.82C959.96 144.98 966.22 144.23 969.62 142.74C973.01 141.24 975.67 138.99 977.55 135.97C979.43 132.95 980.39 129.51 980.39 125.65C980.39 121.79 979.34 118.42 977.24 115.33C975.13 112.25 972.17 110.08 968.35 108.82C964.54 107.55 958.22 106.92 949.38 106.92H949.37Z" fill="white"/>
<path d="M1037.09 92.24H1055.12V212.8H1037.09V92.24Z" fill="white"/>
<path d="M1072.34 92.06H1177.54V107.42H1133.64V212.8H1115.53V107.42H1072.35V92.06H1072.34Z" fill="white"/>
<path d="M1270.29 92.24H1292.18L1245.66 149.02V212.8H1227.19V149.02L1180.67 92.24H1202.43L1236.14 133.8L1270.29 92.24Z" fill="white"/>
<path d="M415.1 280.7L407.7 276.08C403.06 273.16 399.75 270.29 397.79 267.46C395.82 264.64 394.84 261.39 394.84 257.72C394.84 252.2 396.7 247.73 400.42 244.3C404.14 240.85 408.97 239.14 414.91 239.14C420.85 239.14 425.81 240.78 430.55 244.06V255.43C425.64 250.58 420.36 248.16 414.71 248.16C411.53 248.16 408.91 248.91 406.87 250.43C404.82 251.94 403.8 253.88 403.8 256.24C403.8 258.34 404.56 260.31 406.06 262.13C407.57 263.97 409.99 265.88 413.33 267.9L420.77 272.43C429.08 277.53 433.23 284.02 433.23 291.9C433.23 297.52 431.4 302.06 427.75 305.57C424.1 309.09 419.34 310.84 413.5 310.84C406.78 310.84 400.66 308.7 395.13 304.46V291.73C400.39 298.59 406.48 302.02 413.4 302.02C416.45 302.02 419 301.14 421.03 299.39C423.06 297.65 424.07 295.46 424.07 292.83C424.07 288.57 421.08 284.53 415.1 280.71V280.7Z" fill="#17A2DC"/>
<path d="M477.35 239.04C487.87 239.04 496.63 242.45 503.62 249.3C510.62 256.15 514.12 264.74 514.12 275.05C514.12 285.36 510.59 293.91 503.53 300.68C496.47 307.45 487.56 310.83 476.82 310.83C466.08 310.83 458.02 307.45 451.18 300.68C444.35 293.91 440.93 285.43 440.93 275.25C440.93 265.07 444.37 256.14 451.25 249.29C458.14 242.44 466.83 239.03 477.35 239.03V239.04ZM477.74 248.55C469.95 248.55 463.55 251.06 458.54 256.07C453.53 261.08 451.02 267.48 451.02 275.26C451.02 283.04 453.53 289.08 458.56 294.1C463.59 299.11 469.89 301.62 477.45 301.62C485.01 301.62 491.38 299.06 496.46 293.95C501.54 288.84 504.08 282.47 504.08 274.87C504.08 267.27 501.54 261.21 496.46 256.16C491.38 251.09 485.14 248.56 477.74 248.56V248.55Z" fill="#17A2DC"/>
<path d="M526.1 240.04H535.85V300.9H566.5V310.02H526.11V240.03L526.1 240.04Z" fill="#17A2DC"/>
<path d="M622.38 240.04H632.17V279.77C632.17 285.15 631.79 289.21 631.02 291.95C630.25 294.69 629.32 296.96 628.19 298.79C627.07 300.61 625.7 302.24 624.07 303.68C618.68 308.45 611.63 310.84 602.93 310.84C594.23 310.84 586.95 308.46 581.59 303.72C579.97 302.25 578.6 300.61 577.47 298.79C576.35 296.97 575.42 294.74 574.69 292.1C573.96 289.46 573.59 285.32 573.59 279.68V240.05H583.38V279.78C583.38 286.36 584.11 290.93 585.58 293.51C587.04 296.09 589.26 298.14 592.26 299.7C595.25 301.25 598.77 302.03 602.83 302.03C608.62 302.03 613.32 300.47 616.96 297.37C618.88 295.7 620.26 293.73 621.1 291.45C621.95 289.18 622.37 285.29 622.37 279.78V240.05L622.38 240.04Z" fill="#17A2DC"/>
<path d="M639.88 239.93H696.74V248.85H673V310.03H663.21V248.85H639.88V239.93Z" fill="#17A2DC"/>
<path d="M706.04 240.04H715.79V310.03H706.04V240.04Z" fill="#17A2DC"/>
<path d="M764.3 239.04C774.81 239.04 783.57 242.45 790.57 249.3C797.56 256.15 801.06 264.74 801.06 275.05C801.06 285.36 797.53 293.91 790.47 300.68C783.41 307.45 774.5 310.83 763.76 310.83C753.02 310.83 744.96 307.45 738.13 300.68C731.3 293.91 727.88 285.43 727.88 275.25C727.88 265.07 731.32 256.14 738.2 249.29C745.08 242.44 753.78 239.03 764.3 239.03V239.04ZM764.69 248.55C756.9 248.55 750.49 251.06 745.48 256.07C740.47 261.08 737.96 267.48 737.96 275.26C737.96 283.04 740.47 289.08 745.51 294.1C750.54 299.11 756.84 301.62 764.39 301.62C771.94 301.62 778.32 299.06 783.4 293.95C788.47 288.84 791.02 282.47 791.02 274.87C791.02 267.27 788.47 261.21 783.4 256.16C778.32 251.09 772.09 248.56 764.69 248.56V248.55Z" fill="#17A2DC"/>
<path d="M867.13 240.04H876.39V310.03H868L822.5 256.12V310.03H813.34V240.04H821.23L867.13 294.4V240.04Z" fill="#17A2DC"/>
<path d="M907.82 280.7L900.41 276.08C895.77 273.16 892.46 270.29 890.5 267.46C888.53 264.64 887.55 261.39 887.55 257.72C887.55 252.2 889.41 247.73 893.12 244.3C896.85 240.85 901.68 239.14 907.62 239.14C913.56 239.14 918.52 240.78 923.26 244.06V255.43C918.35 250.58 913.08 248.16 907.43 248.16C904.25 248.16 901.63 248.91 899.59 250.43C897.54 251.94 896.52 253.88 896.52 256.24C896.52 258.34 897.27 260.31 898.78 262.13C900.28 263.97 902.71 265.88 906.06 267.9L913.5 272.43C921.8 277.53 925.95 284.02 925.95 291.9C925.95 297.52 924.13 302.06 920.47 305.57C916.82 309.09 912.07 310.84 906.22 310.84C899.5 310.84 893.37 308.7 887.85 304.46V291.73C893.11 298.59 899.21 302.02 906.12 302.02C909.18 302.02 911.72 301.14 913.75 299.39C915.77 297.65 916.8 295.46 916.8 292.83C916.8 288.57 913.81 284.53 907.83 280.71L907.82 280.7Z" fill="#17A2DC"/>
<path d="M135.12 379.88L0 185.41L1.47 142.56L155.28 347.08L135.12 379.88Z" fill="#1E4B97"/>
<path d="M135.36 379.88L338.88 236.41L353.66 207.81L155.14 347.7L135.36 379.88Z" fill="#737577"/>
<path d="M278.35 193.04L253.57 159.67L134.89 243.56L143.94 255.95L249.76 178.74L265.49 202.57L278.35 193.04Z" fill="#727477"/>
<path d="M238.79 44.33L76.74 160.63L84.82 172.08L223.54 76.26L238.79 44.33Z" fill="#737577"/>
<path d="M44.68 200.25L64.34 226.52L52.91 261.42L34.49 235.1L44.68 200.25Z" fill="#F5F5F5"/>
<path d="M44.64 200.28L84.86 172.04L42.49 113.77L1.42999 142.55L44.64 200.28Z" fill="url(#paint0_linear_1_67)"/>
<path d="M64.34 226.52L102.59 198.46L190.89 323.04L155.14 347.7L64.34 226.52Z" fill="url(#paint1_linear_1_67)"/>
<path d="M42.54 113.74L207.68 0L238.79 44.33L76.74 160.63L42.54 113.74Z" fill="#F5F5F5"/>
<path d="M102.59 198.46L268.67 81.22L353.66 207.81L190.89 323.04L157.76 276.3L278.35 193.04L253.57 159.67L134.89 243.56L102.59 198.46Z" fill="white"/>
<path d="M44.64 200.28L84.86 172.04L102.59 198.46L64.34 226.52L44.64 200.28Z" fill="white"/>
<defs>
<linearGradient id="paint0_linear_1_67" x1="1.42999" y1="157.03" x2="84.86" y2="157.03" gradientUnits="userSpaceOnUse">
<stop stop-color="#1E4B97"/>
<stop offset="0.46" stop-color="#2BAAE2"/>
<stop offset="1" stop-color="#1E4B97"/>
</linearGradient>
<linearGradient id="paint1_linear_1_67" x1="64.34" y1="273.08" x2="190.89" y2="273.08" gradientUnits="userSpaceOnUse">
<stop stop-color="#1E4B97"/>
<stop offset="0.46" stop-color="#2BAAE2"/>
<stop offset="1" stop-color="#1E4B97"/>
</linearGradient>
</defs>
</svg>
