<svg width="130" height="50" viewBox="0 0 130 50" fill="none" xmlns="http://www.w3.org/2000/svg">
<path d="M21.8804 39.0331L11.7297 24.6755L11.8407 21.5116L23.3944 36.6116L21.8804 39.0331Z" fill="#1E4A98"/>
<path d="M21.8982 39.033L37.1868 28.4407L38.2969 26.3296L23.3842 36.6575L21.8982 39.033Z" fill="#202020"/>
<path d="M32.6398 25.2387L30.7778 22.7751L21.8625 28.9687L22.5429 29.8837L30.4918 24.1829L31.673 25.9425L32.6398 25.2387Z" fill="#202020"/>
<path d="M29.6682 14.2593L17.4944 22.8455L18.1014 23.6915L28.5223 16.6172L29.6682 14.2593Z" fill="#202020"/>
<path d="M15.0865 25.7709L16.5634 27.7108L15.704 30.2872L14.321 28.3443L15.0865 25.7709Z" fill="#202020"/>
<path d="M15.0864 25.7442L18.1074 23.6858L14.9253 19.3837L11.8406 21.5081L15.0864 25.7442Z" fill="url(#paint0_linear_76_558)"/>
<path d="M16.5632 27.7108L19.4366 25.6387L26.0693 34.8365L23.4021 36.6052L16.5632 27.7108Z" fill="url(#paint1_linear_76_558)"/>
<path d="M26.0694 34.7978L38.2969 26.3296L31.9235 17.0043L19.4414 25.6154L21.8624 28.9687L30.7776 22.7751L32.6397 25.2386L23.7602 31.6429L26.0694 34.7978Z" fill="black"/>
<path d="M14.9253 19.3837L27.3406 10.9867L29.6681 14.2592L17.4943 22.8455L14.9253 19.3837Z" fill="black"/>
<path d="M15.082 25.748L18.1074 23.6858L19.4366 25.6386L16.5764 27.7012L15.082 25.748Z" fill="black"/>
<path d="M50.2268 15.1428H51.6283V26.2292H50.2268V15.1428Z" fill="#1E4A98"/>
<path d="M61.5813 15.1428H62.9125V26.2292H61.7069L55.1602 17.6908V26.2292H53.8428V15.1428H54.9782L61.5802 23.7534V15.1428H61.5813Z" fill="#1E4A98"/>
<path d="M64.1746 15.127H72.3536V16.5394H68.9409V26.2292H67.532V16.5394H64.1746V15.127Z" fill="#1E4A98"/>
<path d="M73.6786 15.1428H79.2292V16.5553H75.08V19.9358H79.0887V21.3569H75.08V24.8009H79.3622V26.2134H73.6775V15.1428H73.6786Z" fill="#1E4A98"/>
<path d="M86.1473 20.7697H89.4344V25.4674C88.2287 26.0604 87.0326 26.3562 85.8461 26.3562C84.2243 26.3562 82.9293 25.8209 81.9598 24.7489C80.9904 23.6769 80.5051 22.3568 80.5051 20.7856C80.5051 19.1293 81.0074 17.7514 82.012 16.6506C83.0165 15.5497 84.2754 15 85.7897 15C86.3409 15 86.8645 15.0678 87.3593 15.202C87.8542 15.3376 88.4809 15.5843 89.2376 15.9436V17.5624C88.0691 16.7948 86.9103 16.411 85.761 16.411C84.6904 16.411 83.7891 16.8237 83.0559 17.649C82.3227 18.4742 81.9556 19.4871 81.9556 20.6889C81.9556 21.8908 82.3227 22.9772 83.0559 23.7765C83.7891 24.5758 84.733 24.9755 85.8876 24.9755C86.4484 24.9755 87.1188 24.8297 87.8989 24.5383L88.0319 24.4907V22.1808H86.1462V20.7683L86.1473 20.7697Z" fill="#1E4A98"/>
<path d="M91.5233 26.2292V15.1428H93.9761C94.9669 15.1428 95.7533 15.4198 96.3343 15.9768C96.9164 16.5322 97.2069 17.2839 97.2069 18.2304C97.2069 18.8753 97.0643 19.4337 96.7791 19.9055C96.4939 20.3758 96.0853 20.7279 95.5522 20.9616C95.865 21.1939 96.1715 21.5113 96.4705 21.9138C96.7695 22.3164 97.1899 23.0176 97.7326 24.0174C98.0742 24.6465 98.3466 25.1212 98.5531 25.4386L99.0713 26.2321H97.4027L96.976 25.5021C96.9622 25.4761 96.9334 25.4299 96.8919 25.3664L96.6184 24.9293L96.1843 24.1199L95.715 23.2542C95.4255 22.7983 95.1605 22.4361 94.9201 22.1678C94.6796 21.898 94.4614 21.7046 94.2677 21.5849C94.0741 21.4666 93.7474 21.406 93.2887 21.406H92.9237V26.2307H91.5222L91.5233 26.2292ZM93.3451 16.4918H92.9248V19.992H93.4568C94.1666 19.992 94.654 19.9228 94.9179 19.7857C95.1818 19.6487 95.3872 19.4409 95.5351 19.1624C95.682 18.8854 95.7554 18.568 95.7554 18.2145C95.7554 17.861 95.6735 17.5494 95.5096 17.2666C95.3457 16.9838 95.1159 16.7833 94.819 16.6679C94.5221 16.551 94.0304 16.4933 93.344 16.4933L93.3451 16.4918Z" fill="#1E4A98"/>
<path d="M100.165 15.1428H101.567V26.2292H100.165V15.1428Z" fill="#1E4A98"/>
<path d="M102.905 15.127H111.084V16.5394H107.671V26.2292H106.262V16.5394H102.904V15.127H102.905Z" fill="#1E4A98"/>
<path d="M118.298 15.1428H120L116.383 20.3643V26.2292H114.946V20.3643L111.329 15.1428H113.021L115.641 18.9648L118.297 15.1428H118.298Z" fill="#1E4A98"/>
<path d="M51.692 32.2285L51.0737 31.8029C50.6853 31.5346 50.4097 31.2705 50.2458 31.0108C50.0819 30.7511 50 30.4525 50 30.1149C50 29.6084 50.1554 29.1972 50.4661 28.8798C50.7768 28.5639 51.1801 28.4052 51.6771 28.4052C52.1741 28.4052 52.587 28.5566 52.9828 28.8582V29.9042C52.5731 29.4584 52.1326 29.2348 51.6601 29.2348C51.394 29.2348 51.1759 29.304 51.0046 29.444C50.8332 29.5825 50.7481 29.7614 50.7481 29.9778C50.7481 30.1711 50.8109 30.3515 50.9365 30.5188C51.062 30.6876 51.2642 30.8637 51.5441 31.0483L52.1655 31.4653C52.8594 31.9342 53.2052 32.5315 53.2052 33.2558C53.2052 33.7723 53.0531 34.1907 52.7476 34.5139C52.4422 34.8371 52.0453 34.9973 51.5579 34.9973C50.996 34.9973 50.4853 34.8025 50.0245 34.4115V33.2414C50.464 33.8719 50.9726 34.1864 51.5505 34.1864C51.8059 34.1864 52.0176 34.1056 52.1868 33.9455C52.356 33.7853 52.4412 33.5833 52.4412 33.3424C52.4412 32.9514 52.1911 32.5791 51.692 32.2271V32.2285Z" fill="#393939"/>
<path d="M56.8903 28.3978C57.7682 28.3978 58.4993 28.7123 59.0835 29.3428C59.6677 29.9719 59.9593 30.7611 59.9593 31.7105C59.9593 32.6598 59.6646 33.4447 59.075 34.0665C58.4855 34.6884 57.7416 35 56.8446 35C55.9475 35 55.2739 34.6884 54.7035 34.0665C54.1331 33.4447 53.8479 32.6656 53.8479 31.7278C53.8479 30.79 54.1352 29.9704 54.7099 29.3414C55.2845 28.7123 56.0113 28.3964 56.8892 28.3964L56.8903 28.3978ZM56.9233 29.2736C56.2731 29.2736 55.7378 29.5044 55.3196 29.9647C54.9014 30.4249 54.6918 31.0136 54.6918 31.7292C54.6918 32.4448 54.9014 33.0003 55.3218 33.462C55.7421 33.9223 56.2678 34.1531 56.8988 34.1531C57.5299 34.1531 58.0619 33.9179 58.4865 33.4476C58.9111 32.9772 59.1229 32.3929 59.1229 31.6917C59.1229 30.9905 58.9111 30.4365 58.4865 29.9704C58.0619 29.5044 57.5416 29.2721 56.9233 29.2721V29.2736Z" fill="#393939"/>
<path d="M60.9619 28.4901H61.776V34.0881H64.3353V34.9264H60.9619V28.4901Z" fill="#393939"/>
<path d="M69.0015 28.4901H69.8198V32.1433C69.8198 32.6381 69.7879 33.0104 69.724 33.2629C69.6602 33.5154 69.5814 33.7246 69.4878 33.8919C69.3941 34.0593 69.2792 34.2093 69.1441 34.3406C68.6939 34.7792 68.1054 35 67.3786 35C66.6518 35 66.0442 34.7821 65.5962 34.3464C65.461 34.2108 65.3461 34.0607 65.2525 33.8919C65.1588 33.7246 65.0811 33.5197 65.0205 33.2773C64.9598 33.0349 64.929 32.654 64.929 32.1346V28.4901H65.7473V32.1433C65.7473 32.7478 65.8079 33.1691 65.9303 33.4057C66.0527 33.6423 66.2379 33.8313 66.4879 33.9742C66.738 34.117 67.0317 34.1891 67.3712 34.1891C67.8543 34.1891 68.247 34.0463 68.5513 33.7606C68.7109 33.6077 68.8269 33.4259 68.8972 33.2167C68.9674 33.0075 69.0025 32.6497 69.0025 32.1433V28.4901H69.0015Z" fill="#393939"/>
<path d="M70.4614 28.4801H75.2097V29.2996H73.2282V34.925H72.411V29.2996H70.4614V28.4801Z" fill="#393939"/>
<path d="M75.9875 28.4901H76.8016V34.9264H75.9875V28.4901Z" fill="#393939"/>
<path d="M80.852 28.3978C81.7299 28.3978 82.461 28.7123 83.0452 29.3428C83.6294 29.9719 83.921 30.7611 83.921 31.7105C83.921 32.6598 83.6262 33.4447 83.0367 34.0665C82.4471 34.6884 81.7033 35 80.8062 35C79.9091 35 79.2355 34.6884 78.6652 34.0665C78.0948 33.4447 77.8096 32.6656 77.8096 31.7278C77.8096 30.79 78.0969 29.9704 78.6715 29.3414C79.2462 28.7123 79.973 28.3964 80.8509 28.3964L80.852 28.3978ZM80.885 29.2736C80.2348 29.2736 79.6995 29.5044 79.2813 29.9647C78.8631 30.4249 78.6534 31.0136 78.6534 31.7292C78.6534 32.4448 78.8631 33.0003 79.2834 33.462C79.7038 33.9223 80.2295 34.1531 80.8605 34.1531C81.4915 34.1531 82.0236 33.9179 82.4482 33.4476C82.8728 32.9772 83.0846 32.3929 83.0846 31.6917C83.0846 30.9905 82.8728 30.4365 82.4482 29.9704C82.0236 29.5044 81.5032 29.2721 80.885 29.2721V29.2736Z" fill="#393939"/>
<path d="M89.4384 28.4901H90.211V34.9264H89.5108L85.7107 29.9704V34.9264H84.9456V28.4901H85.6043L89.4373 33.4894V28.4901H89.4384Z" fill="#393939"/>
<path d="M92.8363 32.2284L92.218 31.8028C91.8296 31.5344 91.554 31.2704 91.3901 31.0107C91.2262 30.751 91.1443 30.4523 91.1443 30.1147C91.1443 29.6083 91.2997 29.1971 91.6104 28.8797C91.9211 28.5637 92.3244 28.405 92.8203 28.405C93.3162 28.405 93.7302 28.5565 94.126 28.8581V29.9041C93.7163 29.4583 93.2758 29.2346 92.8033 29.2346C92.5373 29.2346 92.3191 29.3039 92.1478 29.4438C91.9765 29.5823 91.8913 29.7613 91.8913 29.9777C91.8913 30.171 91.9541 30.3514 92.0797 30.5187C92.2053 30.6875 92.4074 30.8635 92.6873 31.0482L93.3088 31.4652C94.0015 31.9341 94.3485 32.5314 94.3485 33.2557C94.3485 33.7722 94.1963 34.1906 93.8909 34.5138C93.5855 34.837 93.1885 34.9971 92.7011 34.9971C92.1393 34.9971 91.6285 34.8024 91.1677 34.4114V33.2413C91.6072 33.8718 92.1159 34.1863 92.6937 34.1863C92.9491 34.1863 93.1609 34.1055 93.3301 33.9453C93.4993 33.7852 93.5844 33.5832 93.5844 33.3423C93.5844 32.9513 93.3343 32.579 92.8352 32.227L92.8363 32.2284Z" fill="#393939"/>
<defs>
<linearGradient id="paint0_linear_76_558" x1="11.8406" y1="22.5639" x2="18.1074" y2="22.5639" gradientUnits="userSpaceOnUse">
<stop stop-color="#1E4A98"/>
<stop offset="0.46" stop-color="#29ABE2"/>
<stop offset="1" stop-color="#1E4A98"/>
</linearGradient>
<linearGradient id="paint1_linear_76_558" x1="16.5632" y1="31.1219" x2="26.0693" y2="31.1219" gradientUnits="userSpaceOnUse">
<stop stop-color="#1E4A98"/>
<stop offset="0.46" stop-color="#29ABE2"/>
<stop offset="1" stop-color="#1E4A98"/>
</linearGradient>
</defs>
</svg>
